<?xml version="1.0" encoding="UTF-8" standalone="no"?>
<svg width="107px" height="10px" viewBox="0 0 107 10" version="1.1" xmlns="http://www.w3.org/2000/svg" xmlns:xlink="http://www.w3.org/1999/xlink">
    <!-- Generator: Sketch 39.1 (31720) - http://www.bohemiancoding.com/sketch -->
    <title>arrow_more</title>
    <desc>Created with Sketch.</desc>
    <defs></defs>
    <g id="Page-1" stroke="none" stroke-width="1" fill="none" fill-rule="evenodd">
        <g id="arrow_more">
            <path d="M13.5170845,-11.6025964 C14.1225998,-10.152281 19.7497187,-4.24373881 19.7497187,-4.24373881 C19.8652227,-4.05489658 19.8199719,-3.86288349 19.7011226,-3.68848628 C19.1132146,-4.26382091 14.7802326,-8.50713403 13.2450516,-10.0883354 C13.2450516,-10.0883354 12.4618786,-10.7950845 12.3752507,-10.6127601 C12.3752507,-10.6127601 12.1491729,-10.5817562 12.8612123,-9.783933 C13.5369808,-9.02909255 18.3738838,-3.85301859 18.8999901,-3.05378613 C18.8617823,-3.03299939 18.8281523,-3.01626431 18.8026217,-3.00410935 C18.7476869,-2.94192529 18.7295514,-2.91092134 18.7064858,-2.87833197 C17.9363423,-3.63211546 13.8000339,-7.68641019 12.3088711,-9.22057716 C12.3088711,-9.22057716 11.5265785,-9.9280309 11.4392463,-9.74464959 C11.4392463,-9.74464959 11.2122881,-9.71329332 11.9262644,-8.9168794 C12.6259787,-8.1331489 17.7873845,-2.61162755 18.0044826,-2.11785444 C17.8233034,-2.01356843 17.6310316,-1.98749693 17.4539021,-2.11574053 C17.4539021,-2.11574053 11.9938764,-8.17912635 10.594976,-8.89485955 C10.594976,-8.89485955 10.2577961,-8.83972184 10.9288105,-8.0108947 C11.5991206,-7.18136292 16.7365804,0.25200987 19.2503755,0.619477122 C21.7618817,0.988705962 21.7171591,0.854825276 22.6917235,2.03456074 C23.6659358,3.2109492 29.70577,11.5365663 38.1125544,19.7770987 C38.1125544,19.7770987 41.4982633,23.2241741 41.8534027,22.8956379 L42.3122491,22.4700382 C42.3407729,22.4439667 42.8135291,22.0055075 42.8135291,22.0055075 C43.1679642,21.6769713 39.9909019,18.0361213 39.9909019,18.0361213 C32.4194081,9.02137098 24.5834525,2.36045452 23.4851087,1.29856929 C22.3850043,0.235450943 22.5142419,0.291293282 22.3381688,-2.24275102 C22.162624,-4.77714765 15.147345,-10.469543 14.3724474,-11.202716 C13.5980781,-11.9357127 13.5170845,-11.6025964 13.5170845,-11.6025964 Z" id="Fill-36" fill="#DBC49A" transform="translate(26.675692, 5.619798) rotate(133.000000) translate(-26.675692, -5.619798) "></path>
            <path d="M69.5170845,-11.6025964 C70.1225998,-10.152281 75.7497187,-4.24373881 75.7497187,-4.24373881 C75.8652227,-4.05489658 75.8199719,-3.86288349 75.7011226,-3.68848628 C75.1132146,-4.26382091 70.7802326,-8.50713403 69.2450516,-10.0883354 C69.2450516,-10.0883354 68.4618786,-10.7950845 68.3752507,-10.6127601 C68.3752507,-10.6127601 68.1491729,-10.5817562 68.8612123,-9.783933 C69.5369808,-9.02909255 74.3738838,-3.85301859 74.8999901,-3.05378613 C74.8617823,-3.03299939 74.8281523,-3.01626431 74.8026217,-3.00410935 C74.7476869,-2.94192529 74.7295514,-2.91092134 74.7064858,-2.87833197 C73.9363423,-3.63211546 69.8000339,-7.68641019 68.3088711,-9.22057716 C68.3088711,-9.22057716 67.5265785,-9.9280309 67.4392463,-9.74464959 C67.4392463,-9.74464959 67.2122881,-9.71329332 67.9262644,-8.9168794 C68.6259787,-8.1331489 73.7873845,-2.61162755 74.0044826,-2.11785444 C73.8233034,-2.01356843 73.6310316,-1.98749693 73.4539021,-2.11574053 C73.4539021,-2.11574053 67.9938764,-8.17912635 66.594976,-8.89485955 C66.594976,-8.89485955 66.2577961,-8.83972184 66.9288105,-8.0108947 C67.5991206,-7.18136292 72.7365804,0.25200987 75.2503755,0.619477122 C77.7618817,0.988705962 77.7171591,0.854825276 78.6917235,2.03456074 C79.6659358,3.2109492 85.70577,11.5365663 94.1125544,19.7770987 C94.1125544,19.7770987 97.4982633,23.2241741 97.8534027,22.8956379 L98.3122491,22.4700382 C98.3407729,22.4439667 98.8135291,22.0055075 98.8135291,22.0055075 C99.1679642,21.6769713 95.9909019,18.0361213 95.9909019,18.0361213 C88.4194081,9.02137098 80.5834525,2.36045452 79.4851087,1.29856929 C78.3850043,0.235450943 78.5142419,0.291293282 78.3381688,-2.24275102 C78.162624,-4.77714765 71.147345,-10.469543 70.3724474,-11.202716 C69.5980781,-11.9357127 69.5170845,-11.6025964 69.5170845,-11.6025964 Z" id="Fill-36" fill="#FFFFFF" transform="translate(82.675692, 5.619798) rotate(133.000000) translate(-82.675692, -5.619798) "></path>
        </g>
    </g>
</svg>