<?xml version="1.0" encoding="UTF-8" standalone="no"?>
<svg width="70px" height="70px" viewBox="0 0 70 70" version="1.1" xmlns="http://www.w3.org/2000/svg" xmlns:xlink="http://www.w3.org/1999/xlink">
    <!-- Generator: Sketch 39.1 (31720) - http://www.bohemiancoding.com/sketch -->
    <title>couverts</title>
    <desc>Created with Sketch.</desc>
    <defs></defs>
    <g id="Page-1" stroke="none" stroke-width="1" fill="none" fill-rule="evenodd">
        <g id="couverts" fill="#DBC49A">
            <g id="Group-4" transform="translate(4.000000, 2.000000)">
                <path d="M5.66144112,1.80061233 C6.80154438,4.53135986 17.3966476,15.656345 17.3966476,15.656345 C17.6141259,16.0119094 17.5289248,16.373444 17.3051476,16.7018104 C16.1981966,15.6185331 8.03977808,7.62894897 5.14924003,4.65176085 C5.14924003,4.65176085 3.67463134,3.32104798 3.51152264,3.66434006 C3.51152264,3.66434006 3.08584873,3.7227163 4.42652264,5.22490936 C5.69890308,6.64617174 14.8061368,16.3920183 15.7967237,17.8968648 C15.7247835,17.9360034 15.6614629,17.9675133 15.6133922,17.9903995 C15.5099574,18.1074836 15.4758107,18.1658599 15.4323813,18.2272212 C13.9823052,16.807949 6.19419655,9.17426085 3.38653894,6.28563214 C3.38653894,6.28563214 1.91358786,4.95359253 1.74915308,5.29887471 C1.74915308,5.29887471 1.32182155,5.35791431 2.66614221,6.85745392 C3.9836096,8.33311233 13.7018379,18.7293896 14.1106042,19.6590975 C13.7694683,19.8554539 13.4074466,19.904543 13.0739357,19.6630777 C13.0739357,19.6630777 2.79344655,8.24654303 0.159506336,6.89891431 C0.159506336,6.89891431 -0.475357794,7.00273115 0.788071553,8.56330045 C2.05017481,10.1251965 11.7233161,24.1212311 16.456452,24.8131222 C21.1852781,25.5083302 21.1010716,25.2562509 22.9360444,27.4775331 C24.7703542,29.6925133 36.1425444,45.3685232 51.9713813,60.8843302 C51.9713813,60.8843302 58.3462129,67.3747064 59.0148922,66.7561173 L59.8788379,65.9547708 C59.9325444,65.9056816 60.8226802,65.0801222 60.8226802,65.0801222 C61.4900335,64.4615331 55.5080552,57.6063054 55.5080552,57.6063054 C41.2519574,40.6327509 26.4979139,28.091147 24.4298813,26.0917608 C22.3585335,24.0900529 22.6018705,24.1951965 22.2703487,19.4239341 C21.9398216,14.6520084 8.7310009,3.93399847 7.27197373,2.55353313 C5.81394112,1.17339946 5.66144112,1.80061233 5.66144112,1.80061233 Z" id="Fill-36"></path>
                <path d="M50.2845034,8.88980293 C52.8486823,6.50110746 43.8862049,0.414618461 45.5300006,0.0123076941 C45.5300006,0.0123076941 70.1289278,-0.925000565 57.0236412,13.5597054 C57.0236412,13.5597054 45.4526263,27.9017455 44.6578692,28.4988652 C43.6356182,29.2669064 42.8066878,27.6281647 40.4368341,28.4988652 C38.0216982,29.3864494 36.1718069,30.9974346 35.0134699,32.2220088 C30.1132471,38.4589791 21.0119808,49.6559395 9.57945363,60.7931969 C9.57945363,60.7931969 3.18406776,67.2636722 2.51837211,66.6417662 L1.65674711,65.8384296 C1.60304059,65.7880138 0.714562325,64.9601326 0.714562325,64.9601326 C0.0488666728,64.3395534 6.05438298,57.5035633 6.05438298,57.5035633 C16.3985243,45.2651177 26.9694265,35.3710088 32.8320569,30.0594346 C32.8255535,30.0375725 40.9403803,17.5944473 50.2845034,8.88980293 Z" id="Fill-37"></path>
            </g>
        </g>
    </g>
</svg>