<?xml version="1.0" encoding="UTF-8" standalone="no"?>
<svg width="70px" height="70px" viewBox="0 0 70 70" version="1.1" xmlns="http://www.w3.org/2000/svg" xmlns:xlink="http://www.w3.org/1999/xlink">
    <!-- Generator: Sketch 39.1 (31720) - http://www.bohemiancoding.com/sketch -->
    <title>reservation</title>
    <desc>Created with Sketch.</desc>
    <defs></defs>
    <g id="Page-1" stroke="none" stroke-width="1" fill="none" fill-rule="evenodd">
        <g id="reservation">
            <path d="M35,69 C53.2253967,69 68,54.2253967 68,36 C68,17.7746033 53.2253967,3 35,3 C16.7746033,3 2,17.7746033 2,36 C2,54.2253967 16.7746033,69 35,69 Z" id="Oval" stroke="#DBC49A" stroke-width="2"></path>
            <path d="M25.0017922,17.9566659 C25.4668679,19.0695348 29.7888662,23.6033297 29.7888662,23.6033297 C29.8775808,23.7482338 29.8428253,23.8955709 29.7515412,24.0293909 C29.2999891,23.5879201 25.9719733,20.3319035 24.7928531,19.1186021 C24.7928531,19.1186021 24.1913246,18.5762931 24.1247886,18.7161959 C24.1247886,18.7161959 23.9511459,18.7399861 24.4980392,19.3521788 C25.0170739,19.9313897 28.7321343,23.9031406 29.1362186,24.5164147 C29.1068725,24.5323649 29.0810425,24.5452063 29.0614333,24.5545331 C29.0192397,24.6022487 29.0053105,24.6260389 28.9875946,24.6510457 C28.3960735,24.0726459 25.219116,20.9616686 24.0738047,19.784458 C24.0738047,19.784458 23.4729524,19.2416084 23.4058755,19.3823221 C23.4058755,19.3823221 23.2315567,19.4063827 23.7799375,20.0174941 C24.3173643,20.6188731 28.2816641,24.8556957 28.4484098,25.2345821 C28.3092522,25.3146037 28.1615748,25.3346091 28.0255277,25.2362041 C28.0255277,25.2362041 23.831868,20.5835933 22.7574203,20.0343905 C22.7574203,20.0343905 22.4984439,20.0766993 23.0138272,20.7126823 C23.5286696,21.3492059 27.4745774,27.0530473 29.4053377,27.3350155 C31.33434,27.6183355 31.2999901,27.515605 32.0485198,28.42085 C32.7967791,29.3235268 37.4357699,35.712013 43.8927346,42.0352112 C43.8927346,42.0352112 46.4931822,44.6802516 46.7659526,44.4281563 L47.1183769,44.1015814 C47.1402851,44.081576 47.503393,43.7451336 47.503393,43.7451336 C47.7756225,43.4930383 45.3354292,40.699309 45.3354292,40.699309 C39.5200228,33.7820311 33.5014924,28.6709177 32.657892,27.8561025 C31.8129392,27.0403412 31.9122022,27.0831906 31.7769665,25.1387453 C31.6421365,23.1940297 26.2539398,18.8260905 25.6587674,18.2635057 C25.0640007,17.7010562 25.0017922,17.9566659 25.0017922,17.9566659 Z" id="Fill-36" fill="#DBC49A" transform="translate(35.108470, 31.171906) rotate(42.000000) translate(-35.108470, -31.171906) "></path>
            <path d="M47.4954187,27.822871 C48.373096,26.9629472 45.3053836,24.7718281 45.8680286,24.6269973 C45.8680286,24.6269973 54.287847,24.2895689 49.8021175,29.5040229 C49.8021175,29.5040229 45.8415446,34.6671175 45.569512,34.8820789 C45.2196118,35.1585716 44.9358822,34.5686291 44.1247193,34.8820789 C43.298057,35.2016068 42.6648689,35.781557 42.2683887,36.2224003 C40.591121,38.4676923 37.4759034,42.4985669 33.5627327,46.5079487 C33.5627327,46.5079487 31.3736946,48.8373018 31.1458377,48.6134174 L30.8509172,48.3242184 C30.8325343,48.3060689 30.5284225,48.008034 30.5284225,48.008034 C30.3005655,47.7846272 32.3561575,45.3236897 32.3561575,45.3236897 C35.8967912,40.9178833 39.5150416,37.3560315 41.521726,35.4438796 C41.5195,35.4360093 44.2970751,30.9565187 47.4954187,27.822871 Z" id="Fill-37" fill="#DBC49A" transform="translate(40.814504, 36.625574) rotate(47.000000) translate(-40.814504, -36.625574) "></path>
        </g>
    </g>
</svg>