<?xml version="1.0" encoding="UTF-8" standalone="no"?>
<svg width="70px" height="70px" viewBox="0 0 70 70" version="1.1" xmlns="http://www.w3.org/2000/svg" xmlns:xlink="http://www.w3.org/1999/xlink">
    <!-- Generator: Sketch 39.1 (31720) - http://www.bohemiancoding.com/sketch -->
    <title>table</title>
    <desc>Created with Sketch.</desc>
    <defs></defs>
    <g id="Page-1" stroke="none" stroke-width="1" fill="none" fill-rule="evenodd">
        <g id="table">
            <g id="Group-5" transform="translate(5.000000, 1.000000)">
                <path d="M29.8223696,59.4433678 C16.8877174,59.4433678 6.40208261,48.9915862 6.40208261,36.0978391 C6.40208261,23.2048851 16.8877174,12.7525747 29.8223696,12.7525747 C42.757287,12.7525747 53.2429217,23.2048851 53.2429217,36.0978391 C53.2429217,48.9915862 42.757287,59.4433678 29.8223696,59.4433678 Z" id="Fill-41" fill="#DBC49A"></path>
                <path d="M29.4712217,23.0867126 C22.3382,23.0867126 16.534713,28.8710805 16.534713,35.9812529 C16.534713,43.0916897 22.3382,48.8763218 29.4712217,48.8763218 C36.6042435,48.8763218 42.4072,43.0916897 42.4072,35.9812529 C42.4072,28.8710805 36.6042435,23.0867126 29.4712217,23.0867126 L29.4712217,23.0867126 Z M29.4712217,49.9337931 C21.7531304,49.9337931 15.4738435,43.6748851 15.4738435,35.9812529 C15.4738435,28.2878851 21.7531304,22.0292414 29.4712217,22.0292414 C37.189313,22.0292414 43.4680696,28.2878851 43.4680696,35.9812529 C43.4680696,43.6748851 37.189313,49.9337931 29.4712217,49.9337931 L29.4712217,49.9337931 Z" id="Fill-42" fill="#B6A381"></path>
                <path d="M59.9619391,6.01621839 C59.8595652,4.48896552 59.448213,4.76047126 59.448213,4.76047126 C58.6705957,6.87885057 58.8432522,18.5898161 58.8432522,18.5898161 C58.7806609,18.9017701 58.5451478,19.0593333 58.2489,19.1270115 C58.1897565,17.947931 57.7574522,9.25313793 57.6802739,6.09103448 C57.6802739,6.09103448 57.5434217,4.58281609 57.2736957,4.69067816 C57.2736957,4.69067816 57.0039696,4.50244828 56.9769174,6.03736782 C56.9530478,7.49165517 57.0060913,17.6600345 56.7814522,19.0143908 C56.7204522,18.9990575 56.6684696,18.9839885 56.6297478,18.9726207 L56.6297478,18.9493563 C56.6297478,18.9493563 56.6154261,18.9530575 56.5886391,18.9612529 C56.5626478,18.9530575 56.5477957,18.9493563 56.5477957,18.9493563 L56.5477957,18.9723563 C56.5106652,18.9839885 56.4618652,18.9990575 56.4053739,19.010954 C56.3279304,17.4662529 55.9189652,9.16166667 55.8420522,6.09182759 C55.8420522,6.09182759 55.7067913,4.58387356 55.4349435,4.69173563 C55.4349435,4.69173563 55.1644217,4.50350575 55.1405522,6.03842529 C55.1140304,7.54664368 55.1723783,18.3957701 54.9190957,19.1275402 C54.6257652,19.0601264 54.3971478,18.9004483 54.3353522,18.5927241 C54.3353522,18.5927241 54.4910348,6.88149425 53.7118261,4.76390805 C53.7118261,4.76390805 53.3012696,4.4931954 53.1999565,6.02044828 C53.0978478,7.54796552 51.262013,20.3875172 53.5598565,23.2257701 C55.8545174,26.0632299 55.9383261,25.8787011 55.815,28.0718966 C55.6948565,30.2611264 53.9407087,44.9205862 54.7721652,61.7983563 C54.7721652,61.7983563 54.9814217,68.7314023 55.6781478,68.7308736 L56.5790913,68.7298161 L56.6613087,68.7298161 L57.563313,68.7295517 C58.2592435,68.7292874 58.460013,61.795977 58.460013,61.795977 C59.2689261,44.9174138 57.4964783,30.2598046 57.3736826,28.0708391 C57.2498261,25.877908 57.3320435,26.0624368 59.6240522,23.2218046 C61.9155304,20.3806437 60.0648435,7.54347126 59.9619391,6.01621839" id="Fill-43" fill="#DBC49A"></path>
                <path d="M1.68015217,32.6118851 C1.68015217,32.6118851 -1.72497391,5.11868966 1.57273913,0.107862069 C1.57273913,0.107862069 6.05942174,0.592712644 6.70787826,22.4665057 C6.70787826,22.4665057 6.69063913,24.7461494 5.14123913,27.799069 C4.25223043,29.5494483 4.05729565,31.4095402 4.04748261,32.6946322 C4.5582913,38.7195747 5.30355217,49.6945402 4.71397391,61.8477931 C4.71397391,61.8477931 4.50975652,68.7808391 3.81303043,68.7808391 L2.91182174,68.7808391 L2.8288087,68.7808391 L1.92680435,68.7808391 C1.23087391,68.7808391 1.02665652,61.8477931 1.02665652,61.8477931 C0.432569565,49.6458966 1.18843913,38.6331264 1.69951304,32.6235172 L1.68015217,32.6118851" id="Fill-44" fill="#DBC49A"></path>
            </g>
        </g>
    </g>
</svg>